<?xml version="1.0" standalone="no"?>
<!DOCTYPE svg PUBLIC "-//W3C//DTD SVG 20010904//EN"
 "http://www.w3.org/TR/2001/REC-SVG-20010904/DTD/svg10.dtd">
<svg version="1.0" xmlns="http://www.w3.org/2000/svg"
 width="500.000000pt" height="500.000000pt" viewBox="0 0 500.000000 500.000000"
 preserveAspectRatio="xMidYMid meet">

<g transform="translate(0.000000,500.000000) scale(0.100000,-0.100000)"
fill="#000000" stroke="none">
<path d="M2095 3506 c-205 -65 -319 -277 -284 -530 19 -141 73 -242 167 -311
111 -83 293 -99 422 -39 167 79 249 241 237 468 -14 268 -171 427 -421 425
-44 0 -99 -6 -121 -13z m236 -157 c92 -46 142 -149 142 -294 0 -104 -22 -179
-70 -234 -49 -58 -101 -81 -183 -81 -57 0 -74 5 -120 33 -46 27 -60 43 -88 97
-59 117 -54 294 13 400 61 96 200 132 306 79z"/>
<path d="M350 2500 l0 -1010 125 0 125 0 -2 1008 -3 1007 -122 3 -123 3 0
-1011z"/>
<path d="M740 3055 l0 -455 80 0 80 0 2 316 3 316 127 -314 126 -313 59 -3 59
-3 124 310 c69 171 128 311 133 311 4 0 7 -139 7 -310 l0 -310 80 0 80 0 0
455 0 455 -104 0 -103 0 -133 -325 c-73 -179 -136 -328 -140 -330 -4 -3 -68
143 -141 323 l-134 327 -103 3 -102 3 0 -456z"/>
<path d="M2690 3508 c0 -2 72 -205 159 -453 l159 -450 103 0 104 0 157 445
c87 245 158 448 158 453 0 4 -40 7 -90 7 l-89 0 -116 -355 c-64 -195 -119
-355 -123 -355 -4 0 -60 160 -125 355 l-119 355 -89 0 c-49 0 -89 -1 -89 -2z"/>
<path d="M3600 3055 l0 -455 85 0 85 0 0 455 0 455 -85 0 -85 0 0 -455z"/>
<path d="M3900 3055 l0 -455 300 0 300 0 0 70 0 70 -215 0 -215 0 0 125 0 125
195 0 195 0 0 70 0 70 -195 0 -195 0 0 120 0 120 210 0 210 0 0 70 0 70 -295
0 -295 0 0 -455z"/>
<path d="M740 1955 l0 -455 173 0 c202 0 268 9 351 48 110 52 184 150 211 279
49 229 -33 449 -197 534 -73 37 -154 49 -350 49 l-188 0 0 -455z m409 299
c136 -40 207 -200 172 -386 -16 -82 -45 -134 -98 -174 -51 -39 -115 -54 -233
-54 l-90 0 0 315 0 315 98 0 c60 0 119 -6 151 -16z"/>
<path d="M1660 1955 l0 -455 80 0 80 0 0 455 0 455 -80 0 -80 0 0 -455z"/>
<path d="M2108 1962 c-87 -246 -158 -451 -158 -455 0 -4 38 -7 84 -7 l84 0 38
113 39 112 164 3 c95 1 168 -2 175 -7 6 -6 27 -57 46 -115 l34 -106 88 0 87 0
-23 63 c-13 34 -85 239 -161 455 l-138 392 -101 0 -101 0 -157 -448z m321 88
c34 -96 61 -178 61 -182 0 -4 -57 -8 -126 -8 -97 0 -125 3 -122 13 3 6 31 90
63 185 31 95 59 172 60 170 2 -2 31 -82 64 -178z"/>
<path d="M2920 1956 l0 -456 80 0 80 0 0 170 0 170 78 0 c63 0 82 -4 94 -17 8
-10 47 -79 86 -153 39 -74 77 -143 84 -153 11 -15 26 -17 99 -15 l86 3 -94
170 c-51 94 -92 175 -92 180 0 6 21 24 47 40 71 45 105 119 105 225 0 70 -4
89 -29 138 -32 62 -91 114 -152 133 -22 7 -125 14 -254 16 l-218 5 0 -456z
m417 297 c52 -27 75 -75 70 -145 -2 -44 -9 -64 -28 -84 -39 -43 -78 -54 -194
-54 l-105 0 0 156 0 157 111 -6 c79 -4 120 -11 146 -24z"/>
<path d="M3680 2406 c0 -2 74 -132 165 -289 l165 -284 0 -167 0 -166 80 0 80
0 0 173 0 172 155 268 c86 147 158 274 162 282 4 13 -10 15 -84 15 l-89 0
-109 -200 c-61 -110 -114 -198 -120 -197 -5 2 -58 92 -118 200 l-109 197 -89
0 c-49 0 -89 -2 -89 -4z"/>
</g>
</svg>
